<?xml version="1.0" encoding="utf-8"?>
<!-- Generator: Adobe Illustrator 16.0.4, SVG Export Plug-In . SVG Version: 6.00 Build 0)  -->
<!DOCTYPE svg PUBLIC "-//W3C//DTD SVG 1.1//EN" "http://www.w3.org/Graphics/SVG/1.1/DTD/svg11.dtd">
<svg version="1.1" id="Layer_1" xmlns="http://www.w3.org/2000/svg" xmlns:xlink="http://www.w3.org/1999/xlink" x="0px" y="0px"
	 width="52px" height="52px" viewBox="0 0 52 52" enable-background="new 0 0 52 52" xml:space="preserve">
<g opacity="0.8">
	<circle fill="#FFFFFF" cx="26" cy="26" r="25"/>
	<path fill="#FF0000" d="M26,0C11.664,0,0,11.663,0,26s11.664,26,26,26c14.337,0,26-11.664,26-26S40.337,0,26,0z M26,50
		C12.767,50,2,39.233,2,26C2,12.766,12.767,2,26,2s24,10.767,24,24C50,39.233,39.233,50,26,50z"/>
	<path fill="#FF0000" d="M22.338,24.725c-0.549,0.055-0.95,0.545-0.896,1.095l0.875,8.75c0.052,0.516,0.486,0.9,0.994,0.9
		c0.033,0,0.067-0.002,0.101-0.005c0.549-0.055,0.95-0.545,0.896-1.095l-0.875-8.75C23.378,25.071,22.89,24.669,22.338,24.725z"/>
	<path fill="#FF0000" d="M29.662,24.725c-0.551-0.058-1.04,0.346-1.095,0.896l-0.875,8.75c-0.055,0.55,0.346,1.04,0.896,1.095
		c0.034,0.003,0.067,0.005,0.101,0.005c0.508,0,0.942-0.385,0.994-0.9l0.875-8.75C30.612,25.27,30.212,24.78,29.662,24.725z"/>
	<path fill="#FF0000" d="M35.562,15.154h-6.688v-0.625c0-1.585-1.29-2.875-2.875-2.875c-1.585,0-2.875,1.29-2.875,2.875v0.625
		h-6.688c-1.654,0-3,1.346-3,3v1c0,1.449,1.033,2.661,2.401,2.939c-0.159,0.446-0.225,0.927-0.161,1.407l1.941,14.484
		c0.188,1.395,1.334,2.446,2.665,2.446h11.436c1.328,0,2.472-1.052,2.661-2.447L36.323,23.5c0.063-0.48-0.003-0.96-0.161-1.406
		c1.367-0.278,2.4-1.49,2.4-2.939v-1C38.562,16.5,37.217,15.154,35.562,15.154z M25.125,14.529c0-0.482,0.393-0.875,0.875-0.875
		s0.875,0.393,0.875,0.875v0.625h-1.75V14.529z M32.397,37.718c-0.055,0.407-0.347,0.714-0.679,0.714H20.283
		c-0.334,0-0.628-0.307-0.683-0.713l-1.94-14.483c-0.035-0.262,0.035-0.535,0.186-0.727c0.13-0.165,0.309-0.26,0.491-0.26h15.325
		c0.184,0,0.364,0.095,0.491,0.255c0.152,0.195,0.223,0.469,0.188,0.731L32.397,37.718z M36.562,19.154c0,0.551-0.448,1-1,1H16.438
		c-0.551,0-1-0.449-1-1v-1c0-0.551,0.449-1,1-1h19.125c0.552,0,1,0.449,1,1V19.154z"/>
</g>
</svg>
