<?xml version="1.0" encoding="utf-8"?>
<!-- Generator: Adobe Illustrator 16.0.4, SVG Export Plug-In . SVG Version: 6.00 Build 0)  -->
<!DOCTYPE svg PUBLIC "-//W3C//DTD SVG 1.1//EN" "http://www.w3.org/Graphics/SVG/1.1/DTD/svg11.dtd">
<svg version="1.1" id="Layer_1" xmlns="http://www.w3.org/2000/svg" xmlns:xlink="http://www.w3.org/1999/xlink" x="0px" y="0px"
	 width="52px" height="52px" viewBox="0 0 52 52" enable-background="new 0 0 52 52" xml:space="preserve">
<g opacity="0.8">
	<g>
		<circle fill="#FFFFFF" cx="26" cy="26" r="25"/>
		<path fill="#f57c00" d="M26,52C11.664,52,0,40.337,0,26S11.664,0,26,0c14.336,0,26,11.663,26,26S40.336,52,26,52z M26,2
			C12.767,2,2,12.767,2,26s10.767,24,24,24s24-10.767,24-24S39.233,2,26,2z"/>
	</g>
	<path fill="#f57c00" d="M37.939,36.936H13.785c-1.958,0-3.551-1.594-3.551-3.553v-8.875c0-0.553,0.448-1,1-1s1,0.447,1,1v8.875
		c0,0.856,0.696,1.553,1.551,1.553h24.154c0.855,0,1.552-0.696,1.552-1.553V19.746c0-0.856-0.696-1.553-1.552-1.553h-8.559
		c-0.553,0-1-0.447-1-1s0.447-1,1-1h8.559c1.959,0,3.552,1.594,3.552,3.553v13.637C41.491,35.342,39.898,36.936,37.939,36.936z"/>
	<path fill="#f57c00" d="M11.234,25.508c-0.552,0-1-0.447-1-1v-4.762c0-1.959,1.593-3.553,3.551-3.553h8.533c0.552,0,1,0.447,1,1
		s-0.448,1-1,1h-8.533c-0.855,0-1.551,0.696-1.551,1.553v4.762C12.234,25.061,11.787,25.508,11.234,25.508z"/>
	<path fill="#f57c00" d="M33.977,43.328H17.748c-0.552,0-1-0.447-1-1v-1.439c0-1.332,1.083-2.416,2.415-2.416h13.398
		c1.331,0,2.415,1.084,2.415,2.416v1.439C34.977,42.881,34.529,43.328,33.977,43.328z M18.748,41.328h14.229v-0.439
		c0-0.229-0.186-0.416-0.415-0.416H19.163c-0.229,0-0.415,0.187-0.415,0.416V41.328z"/>
	<g>
		<path fill="#f57c00" d="M30.727,13.93c-0.293,0-0.584-0.128-0.781-0.375l-4.083-5.103l-4.083,5.103
			c-0.345,0.433-0.975,0.501-1.406,0.156c-0.431-0.346-0.501-0.975-0.156-1.406l4.863-6.078c0.38-0.475,1.182-0.475,1.561,0
			l4.863,6.078c0.346,0.432,0.275,1.061-0.155,1.406C31.166,13.858,30.945,13.93,30.727,13.93z"/>
		<path fill="#f57c00" d="M25.862,28.311c-0.552,0-1-0.447-1-1V6.958c0-0.553,0.448-1,1-1s1,0.447,1,1v20.353
			C26.862,27.863,26.415,28.311,25.862,28.311z"/>
	</g>
</g>
</svg>
